<?xml version="1.0" encoding="UTF-8" standalone="no"?>
<!-- Created with Inkscape (http://www.inkscape.org/) -->

<svg
   xmlns:dc="http://purl.org/dc/elements/1.1/"
   xmlns:cc="http://creativecommons.org/ns#"
   xmlns:rdf="http://www.w3.org/1999/02/22-rdf-syntax-ns#"
   xmlns:svg="http://www.w3.org/2000/svg"
   xmlns="http://www.w3.org/2000/svg"
   xmlns:sodipodi="http://sodipodi.sourceforge.net/DTD/sodipodi-0.dtd"
   xmlns:inkscape="http://www.inkscape.org/namespaces/inkscape"
   id="svg3885"
   version="1.1"
   inkscape:version="0.48.4 r9939"
   width="110.45745"
   height="250"
   sodipodi:docname="gulp.svg"
   inkscape:export-filename="G:\just finish it\images\gulp_white.png"
   inkscape:export-xdpi="89.989998"
   inkscape:export-ydpi="89.989998">
  <metadata
     id="metadata3891">
    <rdf:RDF>
      <cc:Work
         rdf:about="">
        <dc:format>image/svg+xml</dc:format>
        <dc:type
           rdf:resource="http://purl.org/dc/dcmitype/StillImage" />
        <dc:title></dc:title>
      </cc:Work>
    </rdf:RDF>
  </metadata>
  <defs
     id="defs3889">
    <filter
       id="filter3901"
       inkscape:label="Desaturate"
       x="0"
       y="0"
       width="1"
       height="1"
       inkscape:menu="Color"
       inkscape:menu-tooltip="Render in shades of gray by reducing saturation to zero"
       color-interpolation-filters="sRGB">
      <feColorMatrix
         id="feColorMatrix3903"
         type="saturate"
         values="0" />
    </filter>
  </defs>
  <sodipodi:namedview
     pagecolor="#ffffff"
     bordercolor="#666666"
     borderopacity="1"
     objecttolerance="10"
     gridtolerance="10"
     guidetolerance="10"
     inkscape:pageopacity="0"
     inkscape:pageshadow="2"
     inkscape:window-width="1440"
     inkscape:window-height="850"
     id="namedview3887"
     showgrid="false"
     inkscape:zoom="1.5825"
     inkscape:cx="49.194118"
     inkscape:cy="59.105223"
     inkscape:window-x="-8"
     inkscape:window-y="-8"
     inkscape:window-maximized="1"
     inkscape:current-layer="svg3885"
     fit-margin-top="0"
     fit-margin-left="0"
     fit-margin-right="0"
     fit-margin-bottom="0" />
  <path
     style="fill:#ffffff"
     d="m 97.892919,0.00717426 c -0.44922,0.10162 -7.34158,7.05453004 -15.32063,15.46173974 -11.40089,12.01265 -14.65729,15.81128 -15.15937,17.73968 -0.35139,1.34962 -1.71166,6.66851 -3.02381,11.81302 -1.31214,5.1445 -2.64418,9.86165 -2.96333,10.48253 -0.5079,0.9881 -1.65034,1.12016 -9.11175,1.12889 -26.27804,0.0308 -52.06998995,3.67167 -52.06998995,7.33778 0,3.8199 14.18766395,7.60803 36.76951995,9.8173 11.84151,1.15851 33.53904,0.68379 46.12317,-1.00794 13.77373,-1.85165 25.542361,-5.24683 27.133651,-7.82158 1.88195,-3.04506 -10.605051,-6.16657 -29.814761,-7.43857 -3.60561,-0.23875 -6.87483,-0.61809 -7.2773,-0.86683 -0.5153,-0.31847 0.18343,-3.66615 2.35857,-11.30904 l 3.08428,-10.86556 13.06286,-14.45381 c 7.1876,-7.95758 13.062861,-14.7324997 13.062861,-15.0384097 0,-0.87018 -5.940941,-5.18576004 -6.853971,-4.97920004 z M 109.2826,68.950024 c -0.5672,-0.0333 -1.65939,0.14041 -2.7819,0.46365 -17.613201,5.07185 -30.116611,6.6667 -52.070001,6.65238 -19.92598,-0.013 -33.583659,-1.47183 -47.292375,-5.03968 -3.531499,-0.91912 -6.58184695,-1.39934 -6.87412595,-1.08858 -0.563406,0.59905 -0.440363,2.27413 2.53999995,32.818406 1.073192,10.99861 1.953461,20.21518 1.955396,20.48127 0.01201,1.68372 1.543746,-0.26758 3.930952,-5.01952 6.562844,-13.06397 15.973663,-20.205506 23.384123,-17.75984 4.69949,1.55097 8.46884,7.85973 6.1081,10.22047 -1.40964,1.40964 -2.9155,0.82004 -5.32191,-2.11666 -3.23806,-3.95164 -5.11802,-3.93788 -9.414124,0.0806 -9.97731,9.33261 -17.32552,31.59645 -10.684126,32.37492 4.119161,0.48282 12.26469,-8.05765 14.6554,-15.36095 0.75735,-2.31364 1.83741,-4.70102 2.37873,-5.32191 1.40839,-1.61545 3.27306,-1.40254 4.13253,0.48381 0.63091,1.38467 0.24346,3.10956 -2.56015,11.7727 -1.8067,5.58267 -3.90521,12.33714 -4.67683,14.99809 -1.5043,5.18762 -2.729277,7.09588 -4.555871,7.09588 -1.801855,0 -2.102301,-2.29958 -0.907143,-7.17651 0.606504,-2.47491 0.961452,-4.66284 0.766032,-4.85825 -0.195414,-0.19542 -1.719227,0.67745 -3.366508,1.93523 -3.298468,2.51857 -6.851568,3.94238 -8.668253,3.46731 -2.799412,-0.73207 -2.870635,-0.0663 -1.390952,15.09888 0.773876,7.93141 1.580947,16.25149 1.794127,18.48556 3.451702,11.80246 33.157098,13.89042 43.744438,13.99015 14.39078,0 29.25193,-3.45126 38.20079,-5.98714 2.25053,-1.44714 3.97624,-3.41775 4.33413,-5.16063 0.34094,-1.66035 4.023261,-32.85349 4.717141,-39.9546 0.19739,-2.0201 0.0771,-3.38667 -0.30238,-3.38667 -0.34994,0 -1.765501,0.89606 -3.144761,1.99572 -5.40743,4.31127 -10.02106,5.53534 -13.00238,3.44714 -2.66548,-1.86697 -1.6582,-4.53556 4.93889,-12.88143 4.82999,-6.11035 0.50265,-6.25642 -4.75746,-0.16127 -3.0022,3.4788 -5.41995,8.20813 -9.79715,19.21127 -1.9054,4.78971 -3.94153,9.07143 -4.53571,9.51492 -1.67533,1.25045 -3.37059,0.94658 -4.13254,-0.72572 -0.714,-1.56707 -0.54613,-2.09975 3.95111,-12.51857 0.80762,-1.87102 1.29822,-3.58018 1.08857,-3.78984 -0.20965,-0.20965 -1.65553,0.23758 -3.20523,0.98778 -3.40228,1.64701 -5.17615,1.71393 -7.59984,0.28222 -1.72622,-1.0197 -1.98658,-1.01433 -4.41477,0.0806 -3.17381,1.43118 -5.69016,0.94267 -6.53142,-1.27 -0.74901,-1.97005 -0.74838,-1.96531 -3.87048,0.10079 -3.41751,2.2616 -7.55719,2.71898 -9.59555,1.06841 -2.30055,-1.86287 -1.9556,-5.84791 1.18936,-13.88936 1.42489,-3.64336 3.04874,-7.2652 3.60841,-8.06349 1.16813,-1.66616 3.62694,-1.91889 4.81794,-0.48381 0.671,0.80851 0.36178,1.95929 -1.77397,6.61206 -3.21566,7.0054 -3.65797,8.8024 -2.45936,9.79714 2.32718,1.93139 8.14837,-4.42837 10.96634,-11.97428 1.47639,-3.95343 2.81828,-5.52441 4.51556,-5.28159 2.10013,0.30046 1.92407,2.87441 -0.62492,9.47461 -3.11906,8.07626 -2.74757,10.39178 1.29016,7.92238 1.68487,-1.03044 2.80814,-3.35327 8.56746,-17.96143 3.63833,-9.2284 7.16025,-17.28422 7.84174,-17.90095 1.43447,-1.29818 3.18076,-1.14867 4.13254,0.36286 0.51109,0.81166 -0.78398,4.57018 -5.62428,16.32857 -6.11965,14.86623 -7.68881,19.71523 -6.37016,19.71523 1.68694,0 11.12762,-7.81866 11.12762,-9.21254 0,-0.30289 0.76042,-2.1225 1.67317,-4.0519 1.32384,-2.79837 1.96155,-3.50762 3.18508,-3.50762 0.84359,0 1.82325,0.508 2.17714,1.12889 0.59664,1.04676 0.88973,0.99982 3.85032,-0.64508 4.04724,-2.24865 7.10211,-2.31928 9.09159,-0.20159 2.08031,2.2144 1.38515,5.08528 -2.41905,10.09952 -1.67352,2.20583 -3.43786,4.53584 -3.93095,5.20096 -0.49292,0.66512 -0.72454,1.39212 -0.50397,1.61269 0.52015,0.52015 4.38952,-2.1929 8.62793,-6.06777 l 3.346351,-3.06413 1.35064,-11.61143 c 2.13312,-18.57927 3.22766,-28.018736 3.89063,-33.544116 1.81208,-15.10236 2.06262,-17.83406 1.67318,-18.22349 -0.0585,-0.0585 -0.19395,-0.0897 -0.38302,-0.10079 z M 92.228319,191.61588 c -93.912798,39.84708 -46.9564,19.92354 0,0 z m 0,0 c -8.88793,2.53094 -23.58572,5.94682 -38.12016,5.94682 -10.58784,0 -21.22059,-1.82566 -29.673646,-3.78984 -3.25249,-0.75576 -6.185543,-1.51252 -8.648094,-2.21746 -1.181896,-0.0533 -0.6249,1.28057 2.136825,5.84603 l 2.84238,4.69699 1.310318,18.38476 c 0.721476,10.11162 1.504228,18.87546 1.73365,19.47333 0.455381,1.1867 9.026777,5.55301 14.171587,7.21682 1.77397,0.57369 5.2574,1.44291 7.74095,1.93524 10.4774,2.07699 21.71054,0.49736 31.68952,-4.45508 3.28294,-1.62928 6.31049,-3.38153 6.73302,-3.89063 0.48366,-0.58278 1.09104,-6.47972 1.63285,-15.9254 1.36438,-23.78591 1.28336,-23.35007 4.27365,-28.38349 1.43767,-2.41996 2.44051,-4.5949 2.21746,-4.81793 -0.008,-0.008 -0.0292,-0.0131 -0.0403,-0.0201 z"
     id="path3911"
     inkscape:connector-curvature="0"
     sodipodi:nodetypes="sssssssssssscccsscssssscssssssssssssscssscccssssssssssscssssssssssssssssssssssssssscscccssccccssccccsssssssccc" />
  <path
     style="fill:#000000"
     d=""
     id="path3907"
     inkscape:connector-curvature="0" />
  <path
     style="fill:#000000"
     d=""
     id="path3905"
     inkscape:connector-curvature="0" />
  <path
     style="fill:#000000"
     d=""
     id="path3897"
     inkscape:connector-curvature="0" />
  <path
     style="fill:#000000"
     d=""
     id="path3895"
     inkscape:connector-curvature="0" />
</svg>
