<?xml version="1.0" encoding="UTF-8" standalone="no"?>
<!-- Created with Inkscape (http://www.inkscape.org/) -->

<svg
   xmlns:dc="http://purl.org/dc/elements/1.1/"
   xmlns:cc="http://creativecommons.org/ns#"
   xmlns:rdf="http://www.w3.org/1999/02/22-rdf-syntax-ns#"
   xmlns:svg="http://www.w3.org/2000/svg"
   xmlns="http://www.w3.org/2000/svg"
   xmlns:sodipodi="http://sodipodi.sourceforge.net/DTD/sodipodi-0.dtd"
   xmlns:inkscape="http://www.inkscape.org/namespaces/inkscape"
   id="svg3869"
   version="1.1"
   inkscape:version="0.48.4 r9939"
   width="200"
   height="200"
   sodipodi:docname="php.svg"
   inkscape:export-filename="G:\just finish it\images\php_white.png"
   inkscape:export-xdpi="89.989998"
   inkscape:export-ydpi="89.989998">
  <metadata
     id="metadata3875">
    <rdf:RDF>
      <cc:Work
         rdf:about="">
        <dc:format>image/svg+xml</dc:format>
        <dc:type
           rdf:resource="http://purl.org/dc/dcmitype/StillImage" />
        <dc:title></dc:title>
      </cc:Work>
    </rdf:RDF>
  </metadata>
  <defs
     id="defs3873">
    <filter
       id="filter3879"
       inkscape:label="Desaturate"
       x="0"
       y="0"
       width="1"
       height="1"
       inkscape:menu="Color"
       inkscape:menu-tooltip="Render in shades of gray by reducing saturation to zero"
       color-interpolation-filters="sRGB">
      <feColorMatrix
         id="feColorMatrix3881"
         type="saturate"
         values="0" />
    </filter>
  </defs>
  <sodipodi:namedview
     pagecolor="#ffffff"
     bordercolor="#666666"
     borderopacity="1"
     objecttolerance="10"
     gridtolerance="10"
     guidetolerance="10"
     inkscape:pageopacity="0"
     inkscape:pageshadow="2"
     inkscape:window-width="1440"
     inkscape:window-height="850"
     id="namedview3871"
     showgrid="false"
     fit-margin-top="0"
     fit-margin-left="0"
     fit-margin-right="0"
     fit-margin-bottom="0"
     inkscape:zoom="3.165"
     inkscape:cx="62.243286"
     inkscape:cy="100"
     inkscape:window-x="-8"
     inkscape:window-y="-8"
     inkscape:window-maximized="1"
     inkscape:current-layer="svg3869" />
  <path
     style="fill:#ffffff"
     d="M 92.007586,196.24659 C 59.072316,193.58526 29.107248,173.48012 14.105761,143.97818 -1.2262793,113.82616 0.0412307,78.923083 17.525451,49.811731 24.820412,37.665563 37.673918,24.812057 49.820086,17.517095 67.053117,7.1669739 87.131992,2.2478719 106.28943,3.6827323 c 24.2526,1.8164802 45.02784,11.2600267 61.90904,28.1412307 14.14848,14.148479 23.13409,31.174202 26.74193,50.670014 5.218,28.196643 -2.36025,57.128163 -20.77563,79.315223 -19.9793,24.07129 -50.76195,36.97429 -82.157184,34.43739 z m -57.266809,-57.2747 c 0.195868,-0.64462 1.29455,-6.71511 2.315366,-12.79297 l 0.459255,-2.73438 8.398438,-0.24746 c 11.667937,-0.3438 15.346934,-1.32909 19.928895,-5.33728 6.312652,-5.52216 9.758605,-13.61398 9.758605,-22.915272 0,-8.065449 -2.847965,-13.18618 -8.945148,-16.083641 -3.580993,-1.701738 -7.542618,-2.092902 -21.212934,-2.094543 l -12.384642,-0.0015 -0.241113,1.464844 c -0.132611,0.805664 -0.47979,2.783203 -0.771508,4.394531 -0.291718,1.611328 -1.068767,6.005859 -1.726776,9.765625 -0.658008,3.759766 -1.91613,10.878906 -2.795825,15.820316 -0.879696,4.9414 -1.923458,10.91797 -2.319472,13.28125 -0.396015,2.36328 -1.093228,6.31836 -1.549364,8.78906 -0.996713,5.39877 -1.563513,8.68473 -1.566583,9.08203 -0.001,0.16113 2.798395,0.29297 6.221417,0.29297 5.587766,0 6.2449,-0.0699 6.431389,-0.68359 z m 4.852317,-26.06714 c -0.146328,-0.15332 -0.194707,-0.48132 -0.107508,-0.72887 0.138621,-0.39353 1.106098,-5.7399 2.131375,-11.77821 0.953273,-5.61424 1.981625,-11.429748 2.158563,-12.207033 0.192417,-0.845285 0.362499,-0.878906 4.446351,-0.878906 4.408316,0 9.972289,0.836215 11.778391,1.770187 1.661543,0.859219 2.338836,2.794458 2.347816,6.708477 0.0082,3.561652 -0.956598,8.273625 -2.198363,10.736855 -0.80702,1.60085 -2.781278,3.73161 -4.079633,4.40302 -1.774211,0.91749 -6.374266,1.72625 -11.328125,1.99166 -2.685547,0.14388 -5.002535,0.13615 -5.148867,-0.0172 z m 97.451416,25.87182 c 0.10986,-0.48339 0.77196,-4.1748 1.47133,-8.20312 l 1.27159,-7.32422 7.06711,-10e-4 c 12.3417,-0.002 17.15599,-1.4149 22.20227,-6.51512 3.05762,-3.0903 4.22165,-4.71518 5.81108,-8.1117 1.71219,-3.65886 2.62774,-7.28177 2.90388,-11.490775 0.58013,-8.842613 -2.3423,-14.962523 -8.6211,-18.053566 -3.94622,-1.942715 -7.07977,-2.283078 -21.15973,-2.29834 -11.64121,-0.01262 -12.58647,0.03695 -12.77591,0.669965 -0.11251,0.375977 -0.7341,3.759766 -1.3813,7.519531 -0.6472,3.759766 -1.44585,8.330078 -1.77477,10.15625 -0.32892,1.826172 -1.02855,5.781245 -1.55472,8.789065 -0.52618,3.00781 -1.22306,6.96289 -1.54863,8.78906 -0.32557,1.82617 -1.47631,8.33008 -2.5572,14.45312 -1.0809,6.12305 -2.03753,11.44043 -2.12585,11.81641 -0.14791,0.62965 0.34183,0.68359 6.20582,0.68359 6.28257,0 6.36901,-0.0116 6.56613,-0.8789 z m 4.86351,-25.92448 c -0.22448,-0.36879 -0.052,-1.58096 1.27212,-8.9388 0.46395,-2.57812 1.26951,-7.148434 1.79014,-10.156247 0.52063,-3.007812 1.03754,-5.712585 1.14869,-6.010609 0.28108,-0.75368 10.40121,-0.347016 13.66205,0.548992 4.17599,1.147473 5.12812,2.859008 4.76109,8.5585 -0.39399,6.118334 -2.32689,11.183224 -5.06277,13.266314 -0.69345,0.52799 -2.60928,1.31267 -4.25738,1.74372 -3.23976,0.84734 -12.96048,1.56879 -13.31394,0.98813 z m -52.845368,9.51823 c 0.107227,-0.48339 0.727532,-3.95507 1.378461,-7.71484 2.657082,-15.347308 3.601871,-20.668128 4.231028,-23.828124 l 0.661078,-3.320313 5.756751,0.0437 c 7.7674,0.05897 9.33453,0.65939 10.24412,3.924894 0.22045,0.79141 -0.57107,5.846707 -3.3235,21.226723 -0.63441,3.54492 -1.25203,7.06054 -1.3725,7.8125 -0.12046,0.75195 -0.30939,1.6748 -0.41984,2.05078 -0.18552,0.63156 0.29044,0.68359 6.25313,0.68359 l 6.45393,0 0.23656,-1.46484 c 0.13011,-0.80567 0.39871,-2.25586 0.5969,-3.22266 1.44165,-7.03246 4.40083,-25.027651 4.56836,-27.780769 0.27645,-4.543304 -0.34949,-7.035554 -2.2979,-9.149328 -3.13332,-3.399257 -8.88736,-4.859074 -19.17203,-4.864015 l -5.751958,-0.0028 0.190102,-1.074219 c 0.104558,-0.59082 0.714582,-3.974609 1.355613,-7.519531 0.641027,-3.544922 1.166324,-6.75293 1.16732,-7.128906 0.0016,-0.622633 -0.555539,-0.683594 -6.248191,-0.683594 -3.4375,0 -6.253238,0.131836 -6.257199,0.292969 -0.007,0.285328 -0.217235,1.495289 -1.951242,11.230468 -0.459211,2.578125 -0.984161,5.566407 -1.166559,6.640625 -0.182398,1.074219 -0.709742,4.0625 -1.171875,6.640625 -0.462133,2.578125 -0.989477,5.566407 -1.171875,6.640625 -0.182398,1.074219 -0.709742,4.0625 -1.171875,6.640625 -0.462133,2.578125 -0.990277,5.566405 -1.173652,6.640625 -0.420262,2.46188 -1.300598,7.35285 -2.320215,12.89062 -0.435129,2.36328 -0.793813,4.5166 -0.797074,4.78516 -0.0045,0.3705 1.499832,0.48828 6.236625,0.48828 6.155582,0 6.245273,-0.0122 6.437507,-0.87891 z"
     id="path3883"
     inkscape:connector-curvature="0" />
</svg>
