<?xml version="1.0" encoding="UTF-8" standalone="no"?>
<!-- Created with Inkscape (http://www.inkscape.org/) -->

<svg
   xmlns:dc="http://purl.org/dc/elements/1.1/"
   xmlns:cc="http://creativecommons.org/ns#"
   xmlns:rdf="http://www.w3.org/1999/02/22-rdf-syntax-ns#"
   xmlns:svg="http://www.w3.org/2000/svg"
   xmlns="http://www.w3.org/2000/svg"
   xmlns:sodipodi="http://sodipodi.sourceforge.net/DTD/sodipodi-0.dtd"
   xmlns:inkscape="http://www.inkscape.org/namespaces/inkscape"
   id="svg4434"
   version="1.1"
   inkscape:version="0.48.4 r9939"
   width="249.84509"
   height="250"
   sodipodi:docname="wordpress.png">
  <metadata
     id="metadata4440">
    <rdf:RDF>
      <cc:Work
         rdf:about="">
        <dc:format>image/svg+xml</dc:format>
        <dc:type
           rdf:resource="http://purl.org/dc/dcmitype/StillImage" />
        <dc:title></dc:title>
      </cc:Work>
    </rdf:RDF>
  </metadata>
  <defs
     id="defs4438" />
  <sodipodi:namedview
     pagecolor="#ffffff"
     bordercolor="#666666"
     borderopacity="1"
     objecttolerance="10"
     gridtolerance="10"
     guidetolerance="10"
     inkscape:pageopacity="0"
     inkscape:pageshadow="2"
     inkscape:window-width="1440"
     inkscape:window-height="850"
     id="namedview4436"
     showgrid="false"
     fit-margin-top="0"
     fit-margin-left="0"
     fit-margin-right="0"
     fit-margin-bottom="0"
     inkscape:zoom="0.246875"
     inkscape:cx="-234.70323"
     inkscape:cy="249.502"
     inkscape:window-x="-8"
     inkscape:window-y="-8"
     inkscape:window-maximized="1"
     inkscape:current-layer="svg4434" />
  <path
     style="fill:#ffffff"
     d="M 117.40758,249.87598 C 99.243022,248.31045 84.812006,244.43591 70.038376,237.15793 56.339128,230.40922 46.110557,222.94817 35.233595,211.77019 25.228916,201.48862 18.855926,192.40879 12.429835,179.28083 3.8896682,161.83399 0,144.82365 0,124.92255 0,105.02144 3.8896682,88.0111 12.429835,70.56426 18.855926,57.4363 25.228916,48.35647 35.233595,38.0749 46.118423,26.88884 56.357439,19.42214 70.038376,12.69388 87.912116,3.9036 104.79001,0 124.92255,0 c 20.13253,0 37.01043,3.9036 54.88417,12.69388 13.68093,6.72826 23.91995,14.19496 34.80478,25.38102 10.00468,10.28157 16.37767,19.3614 22.80376,32.48936 8.54016,17.44684 12.42983,34.45718 12.42983,54.35829 0,19.9011 -3.88967,36.91144 -12.42983,54.35828 -6.42609,13.12796 -12.79908,22.20779 -22.80376,32.48936 -10.90068,11.20236 -21.16046,18.6802 -34.80478,25.36749 -12.52613,6.13924 -23.54249,9.57657 -37.06473,11.56495 -6.26072,0.92061 -20.5748,1.58355 -25.33441,1.17335 z m 18.60909,-12.75211 c 9.6803,-0.97622 26.43228,-5.00795 26.11841,-6.28596 -0.40396,-1.64484 -35.00851,-95.88568 -35.21011,-95.89 -0.13864,-0.003 -7.83747,22.03224 -17.10851,48.96715 -11.514102,33.45162 -16.67402,49.0759 -16.280862,49.29864 1.205847,0.68317 12.596802,2.99034 17.989152,3.6436 6.96446,0.84372 17.61898,0.95968 24.49192,0.26657 z M 75.608417,225.28104 C 75.430478,224.81734 63.436826,191.95813 48.955855,152.26058 34.474884,112.56304 22.437526,79.88447 22.20616,79.64155 c -0.497321,-0.52217 -1.369513,1.45066 -3.994237,9.03465 -3.783036,10.9309 -6.013925,24.30933 -6.013925,36.06494 0,41.21021 22.899952,79.91861 58.616765,99.08148 4.703069,2.52331 5.268274,2.69526 4.793654,1.45842 z m 110.951343,-5.98345 c 7.02489,-4.66542 12.46354,-9.11691 18.27196,-14.95544 30.22777,-30.38445 40.61027,-75.39844 26.73617,-115.91645 -1.69474,-4.94931 -7.05647,-17.11063 -7.54337,-17.10962 -0.0852,1.8e-4 -0.16405,5.24187 -0.17527,11.6482 -0.0189,10.77358 -0.12438,12.13676 -1.40563,18.16086 -0.76188,3.58214 -2.46879,9.66926 -3.79315,13.52695 -1.32436,3.85768 -10.21705,29.53529 -19.76154,57.06135 -9.54449,27.52606 -17.35361,50.12733 -17.35361,50.22505 0,0.53042 1.19515,-0.0978 5.02444,-2.6409 z m -65.01504,-98.70381 c 0.0667,-0.3142 -3.8207,-11.39035 -8.63875,-24.61367 l -8.76009,-24.0424 -5.021174,-0.33635 C 90.209993,71.0042 88.349693,70.08803 88.349693,66.29481 c 0,-1.52395 0.317607,-2.1712 1.59132,-3.24296 1.478064,-1.2437 1.825716,-1.31754 4.88473,-1.03738 14.254077,1.30542 30.158487,1.576 43.943917,0.7476 14.85165,-0.89248 16.01946,-0.87096 17.21256,0.31717 1.65077,1.64389 1.8421,4.28275 0.42928,5.92064 -1.42633,1.65357 -3.35329,2.12884 -10.51257,2.59286 -2.995,0.19411 -5.44545,0.52205 -5.44545,0.72876 0,0.6637 40.19075,119.97075 40.5474,120.36577 0.18895,0.20928 2.77837,-7.75173 5.75429,-17.69113 2.9759,-9.9394 6.52964,-21.27035 7.89719,-25.1799 4.79416,-13.70556 6.7971,-24.54047 6.26057,-33.86663 -0.60497,-10.51598 -3.77148,-19.01648 -12.43943,-33.3936 -6.71313,-11.13477 -8.67549,-17.79772 -7.2522,-24.62387 0.91929,-4.40894 2.09692,-6.74679 5.05688,-10.03897 2.7907,-3.10393 6.45943,-5.00698 11.18879,-5.80385 l 3.47543,-0.58559 -4.23322,-3.50566 C 173.91868,19.12452 143.20796,9.75841 113.82842,12.72122 92.332612,14.88899 70.656663,23.78607 53.897048,37.32058 c -5.909276,4.77213 -13.90823,13.08055 -18.778392,19.50489 -2.411052,3.18047 -4.383732,5.93829 -4.383732,6.1285 0,0.7796 23.735191,0.14956 35.684919,-0.94725 3.263762,-0.29956 3.41853,-0.26139 4.884731,1.20481 1.96029,1.96029 2.063445,4.41234 0.261431,6.21436 -1.379513,1.37951 -2.952953,1.7008 -10.870034,2.21964 -2.70113,0.17702 -4.911148,0.37669 -4.911148,0.44373 0,0.22722 40.202634,119.70778 40.703472,120.96901 0.424906,1.07003 2.277416,-4.07548 12.716225,-35.32036 6.72037,-20.11507 12.27346,-36.82992 12.3402,-37.14413 z"
     id="path4444"
     inkscape:connector-curvature="0" />
</svg>
